<?xml version="1.0" encoding="UTF-8" standalone="no"?>
<!-- Created with Inkscape (http://www.inkscape.org/) -->

<svg
   width="1920"
   height="1080"
   viewBox="0 0 1920 1080"
   version="1.1"
   id="svg5"
   inkscape:version="1.1.2 (b8e25be833, 2022-02-05)"
   sodipodi:docname="1.svg"
   xmlns:inkscape="http://www.inkscape.org/namespaces/inkscape"
   xmlns:sodipodi="http://sodipodi.sourceforge.net/DTD/sodipodi-0.dtd"
   xmlns="http://www.w3.org/2000/svg"
   xmlns:svg="http://www.w3.org/2000/svg">
  <sodipodi:namedview
     id="namedview7"
     pagecolor="#ffffff"
     bordercolor="#666666"
     borderopacity="1.0"
     inkscape:pageshadow="2"
     inkscape:pageopacity="0.0"
     inkscape:pagecheckerboard="0"
     inkscape:document-units="px"
     showgrid="false"
     inkscape:zoom="0.56614583"
     inkscape:cx="960"
     inkscape:cy="540.49678"
     inkscape:window-width="1920"
     inkscape:window-height="1017"
     inkscape:window-x="-8"
     inkscape:window-y="-8"
     inkscape:window-maximized="1"
     inkscape:current-layer="layer1" />
  <defs
     id="defs2" />
  <g
     inkscape:label="图层 1"
     inkscape:groupmode="layer"
     id="layer1">
    <g
       aria-label="BlowMolding Share"
       id="text3488"
       style="font-size:59.7967px;line-height:1.25;opacity:0.849557;fill:#ebab00;fill-opacity:0.895307;stroke:#000000;stroke-linecap:round;stroke-linejoin:round">
      <path
         d="m 727.14462,291.08214 q 0.84794,3.12805 0.31369,5.84424 -0.53426,2.71619 -2.11492,4.8085 -1.86299,2.5016 -4.49533,4.06221 -2.60416,1.55297 -6.97214,2.73704 l -14.87934,4.03347 -11.37468,-41.96085 12.42762,-3.36886 q 4.59343,-1.24518 6.96773,-1.52579 2.37429,-0.2806 4.74994,0.22496 2.63929,0.58536 4.20143,2.21899 1.5545,1.60545 2.27258,4.25442 0.80975,2.98714 -0.13906,5.51319 -0.95645,2.49788 -3.14894,4.45353 l 0.0611,0.22544 q 4.49208,-0.27991 7.72298,1.9299 3.22326,2.18163 4.40733,6.54961 z m -14.50999,-16.36531 q -0.41252,-1.52175 -1.20241,-2.42693 -0.7899,-0.90518 -2.09283,-1.24776 -1.53074,-0.40184 -3.46467,-0.0591 -1.94157,0.31456 -4.73145,1.07084 l -6.65061,1.80283 3.28483,12.11764 7.21423,-1.95562 q 2.62079,-0.71044 4.10197,-1.38422 1.47354,-0.70195 2.56885,-1.90641 1.09531,-1.20446 1.2717,-2.67409 0.19693,-1.50545 -0.29961,-3.33718 z m 8.76591,18.16442 q -0.68752,-2.53625 -1.85327,-3.82356 -1.16575,-1.28731 -3.44922,-1.78761 -1.54365,-0.33784 -3.54158,-0.008 -1.97739,0.29402 -4.73909,1.04265 l -8.76415,2.37578 4.23209,15.61202 7.3833,-2.00145 q 3.66348,-0.99309 5.90315,-1.99349 2.23204,-1.02857 3.4506,-2.44795 1.28019,-1.52683 1.63092,-3.13448 0.35074,-1.60764 -0.25275,-3.83391 z"
         id="path31275" />
      <path
         d="m 743.87876,302.13002 -5.39985,0.98611 -8.16157,-44.69237 5.39985,-0.9861 z"
         id="path31277" />
      <path
         d="m 779.85077,280.26452 q 1.10392,7.89413 -2.30545,13.02901 -3.40938,5.13488 -10.20469,6.08515 -6.85315,0.95835 -11.54033,-3.04431 -4.65826,-4.00669 -5.76218,-11.90083 -1.10392,-7.89413 2.27654,-13.02497 3.40533,-5.16379 10.25847,-6.12214 6.79532,-0.95027 11.48654,3.0813 4.68717,4.00265 5.7911,11.89679 z m -5.60975,0.78447 q -0.87748,-6.27482 -3.75995,-8.96732 -2.88651,-2.72141 -7.25286,-2.11081 -4.42418,0.61868 -6.45344,4.02751 -2.00437,3.37588 -1.1269,9.6507 0.84917,6.07241 3.74781,8.88057 2.8946,2.77924 7.28987,2.1646 4.33744,-0.60655 6.36264,-4.0443 2.05008,-3.47071 1.19283,-9.60095 z"
         id="path31279" />
      <path
         d="m 828.33475,259.11127 -5.40166,33.26661 -5.05801,0.47627 -10.69952,-24.24286 -5.92797,25.80852 -5.02894,0.47354 -11.60371,-31.66537 5.69753,-0.53649 8.3268,24.58358 5.7426,-25.90837 4.5057,-0.42427 10.6814,24.36188 3.27173,-25.67572 z"
         id="path31281" />
      <path
         d="m 878.3859,288.82838 -5.77145,0.33444 -2.16714,-37.39779 -10.59296,26.14612 -3.43955,0.19932 -13.45472,-24.7526 2.16714,37.39779 -5.39251,0.31249 -2.5151,-43.40242 7.87015,-0.45607 12.97232,23.4937 9.79282,-24.8129 8.0159,-0.46451 z"
         id="path31283" />
      <path
         d="m 916.85781,271.21049 q 0.26593,7.96651 -3.66555,12.71354 -3.93147,4.74703 -10.78909,4.97595 -6.91598,0.23086 -11.15528,-4.24341 -4.21012,-4.47525 -4.47606,-12.44176 -0.26593,-7.96651 3.63636,-12.71257 3.93051,-4.77621 10.84649,-5.00708 6.85762,-0.22892 11.09789,4.27454 4.2393,4.47428 4.50524,12.44079 z m -5.66119,0.18898 q -0.21138,-6.33236 -2.79408,-9.3136 -2.58367,-3.01042 -6.99005,-2.86333 -4.46475,0.14904 -6.84191,3.32506 -2.34895,3.14587 -2.13757,9.47823 0.20457,6.12808 2.79116,9.22605 2.58562,3.06878 7.02119,2.92072 4.3772,-0.14612 6.75339,-3.35133 2.40439,-3.23536 2.19787,-9.4218 z"
         id="path31285" />
      <path
         d="m 931.4448,287.23832 -5.48803,0.11072 -0.91638,-45.42224 5.48804,-0.11071 z"
         id="path31287" />
      <path
         d="m 968.75774,286.82419 -5.48899,0.0413 -0.0257,-3.41602 q -2.34955,2.06157 -4.9103,3.21958 -2.56074,1.15802 -5.56801,1.18065 -5.83936,0.0439 -9.31842,-4.42642 -3.44987,-4.4706 -3.50986,-12.44132 -0.0312,-4.14594 1.11228,-7.39557 1.17267,-3.24986 3.17011,-5.54237 1.96868,-2.2339 4.5876,-3.42154 2.64812,-1.18787 5.4802,-1.20919 2.56932,-0.0193 4.55888,0.52046 1.98933,0.5106 4.18766,1.63279 l -0.10636,-14.13124 5.489,-0.0413 z m -5.54943,-7.98781 -0.14086,-18.71513 q -2.22642,-0.97599 -3.98109,-1.34236 -1.75466,-0.36638 -3.82763,-0.35077 -4.61309,0.0347 -7.15824,3.2657 -2.54514,3.23098 -2.50075,9.12873 0.0437,5.81016 2.05196,8.83168 2.00802,2.99233 6.38754,2.95937 2.33574,-0.0176 4.72218,-1.05749 2.38623,-1.0691 4.44689,-2.71973 z"
         id="path31289" />
      <path
         d="m 985.64283,248.8299 -6.18982,-0.0299 0.0275,-5.69347 6.18982,0.0299 z m -0.534,38.07154 -5.48909,-0.0265 0.1573,-32.61335 5.48909,0.0265 z"
         id="path31291" />
      <path
         d="m 1023.2379,287.4255 -5.4883,-0.095 0.3213,-18.5669 q 0.039,-2.24787 -0.19,-4.20837 -0.2284,-1.98969 -0.9098,-3.11115 -0.7087,-1.23875 -2.0706,-1.84636 -1.3615,-0.6368 -3.551,-0.67469 -2.2479,-0.0389 -4.7193,1.02801 -2.4714,1.06691 -4.7491,2.75041 l -0.4213,24.34716 -5.48837,-0.095 0.56428,-32.60885 5.48829,0.095 -0.063,3.61996 q 2.6059,-2.08665 5.3708,-3.23609 2.7648,-1.14943 5.655,-1.09942 5.2839,0.0914 8.0022,3.32149 2.7183,3.23006 2.6148,9.21467 z"
         id="path31293" />
      <path
         d="m 1060.3728,284.9284 q -0.2921,8.28697 -4.193,12.03517 -3.901,3.7482 -11.7211,3.47256 -2.597,-0.0915 -5.0639,-0.55829 -2.4387,-0.43654 -4.8077,-1.19201 l 0.1974,-5.60246 0.2918,0.0103 q 1.3238,0.57254 4.215,1.43405 2.8901,0.8907 5.8081,0.99355 2.8012,0.0987 4.6632,-0.5076 1.862,-0.60634 2.9254,-1.7667 1.0614,-1.102 1.5557,-2.69145 0.4942,-1.58944 0.5641,-3.57365 l 0.105,-2.9763 q -2.5502,1.89678 -4.8612,2.80866 -2.2808,0.88373 -5.7823,0.76031 -5.8359,-0.2057 -9.131,-4.5289 -3.2649,-4.35136 -2.9944,-12.02557 0.1481,-4.20184 1.4223,-7.19537 1.3043,-3.02168 3.4251,-5.16733 1.9697,-2.00489 4.7235,-3.04724 2.7548,-1.07153 5.4393,-0.97691 2.8304,0.0998 4.7065,0.75021 1.9063,0.62229 3.9953,1.86455 l 0.3995,-1.38828 5.1356,0.18102 z m -5.3006,-5.44567 0.6263,-17.7703 q -2.1535,-1.06924 -4.0357,-1.54461 -1.8521,-0.50351 -3.7196,-0.56933 -4.5228,-0.15942 -7.2267,2.78371 -2.704,2.94313 -2.9076,8.72067 -0.1934,5.48575 1.6327,8.38404 1.8261,2.89829 6.2905,3.05564 2.3928,0.0843 4.8174,-0.73589 2.4548,-0.84838 4.5227,-2.32393 z"
         id="path31295" />
      <path
         d="m 1124.8335,280.01259 q -0.1735,2.53425 -1.5374,4.92847 -1.3347,2.3962 -3.5789,3.96922 -2.458,1.7047 -5.6466,2.53991 -3.1596,0.83721 -7.529,0.538 -4.6898,-0.32116 -8.3877,-1.45237 -3.6687,-1.12922 -7.4252,-3.11316 l 0.4947,-7.22408 0.4078,0.0279 q 3.1041,2.96358 7.3135,4.7444 4.2095,1.78083 7.9963,2.04015 5.3598,0.36704 8.4686,-1.43942 3.138,-1.80446 3.3674,-5.15434 0.1975,-2.88381 -1.1361,-4.35064 -1.3045,-1.46483 -4.1364,-2.41968 -2.1448,-0.73219 -4.6823,-1.28642 -2.5083,-0.55222 -5.3231,-1.3303 -5.6838,-1.6184 -8.2788,-4.75197 -2.5638,-3.1607 -2.2386,-7.90879 0.373,-5.4472 5.2128,-8.59842 4.8418,-3.18035 11.9203,-2.69562 4.5733,0.31319 8.3294,1.44838 3.7561,1.1352 6.6104,2.61837 l -0.4668,6.81627 -0.4078,-0.0279 q -2.3324,-2.26688 -6.2876,-3.91323 -3.9241,-1.67349 -8.1479,-1.96274 -4.6315,-0.31717 -7.5888,1.41188 -2.928,1.73104 -3.1355,4.7605 -0.1855,2.70903 1.107,4.34864 1.2925,1.6396 4.7613,2.69659 1.8363,0.53548 5.2337,1.35345 3.3974,0.81798 5.7441,1.59327 4.7477,1.61282 7.017,4.3729 2.2694,2.76008 1.9502,7.42078 z"
         id="path31297" />
      <path
         d="m 1159.9492,295.75925 -5.4636,-0.52866 1.7884,-18.48335 q 0.2165,-2.23777 0.1434,-4.21022 -0.07,-2.00152 -0.661,-3.17336 -0.6084,-1.2909 -1.9181,-2.0043 -1.3069,-0.74246 -3.4865,-0.95336 -2.2378,-0.21653 -4.7858,0.65161 -2.5481,0.86815 -4.9517,2.36627 l -2.3453,24.23761 -5.4636,-0.52866 4.3755,-45.22028 5.4636,0.52866 -1.5831,16.36183 q 2.7627,-1.87406 5.6098,-2.80126 2.8471,-0.92721 5.7242,-0.64882 5.2602,0.50897 7.7146,3.94386 2.4544,3.43488 1.8779,9.39257 z"
         id="path31299" />
      <path
         d="m 1195.5729,300.2846 -5.4118,-0.72338 0.4603,-3.44389 q -0.7892,0.39528 -2.1536,1.12609 -1.3315,0.70573 -2.5588,1.07193 -1.4491,0.48381 -3.2725,0.68194 -1.8272,0.22708 -4.2003,-0.0901 -4.37,-0.58412 -7.0219,-3.88432 -2.6519,-3.3002 -2.0523,-7.78593 0.4913,-3.67541 2.3558,-5.72386 1.8973,-2.07351 4.9943,-2.98512 3.126,-0.90774 7.3264,-0.81761 4.2003,0.0901 8.9774,0.49301 l 0.1122,-0.83927 q 0.2476,-1.85217 -0.2556,-3.15663 -0.4742,-1.30059 -1.5968,-2.15763 -1.0687,-0.82036 -2.6584,-1.26851 -1.5897,-0.44815 -3.355,-0.68411 -2.1416,-0.28626 -4.8525,-0.0595 -2.7071,0.19784 -5.6574,0.8934 l -0.2894,-0.0387 0.7388,-5.52758 q 1.6498,-0.22135 4.7292,-0.33997 3.0794,-0.11861 6.0024,0.27209 3.4149,0.45646 5.8553,1.37181 2.4733,0.89028 4.1436,2.49804 1.6453,1.57496 2.318,3.81525 0.6726,2.24029 0.2548,5.36583 z m -4.348,-8.68194 1.2031,-9.00041 q -2.5083,-0.18797 -5.9329,-0.35117 -3.3958,-0.15932 -5.4372,0.1275 -2.4332,0.35229 -4.0697,1.57694 -1.6327,1.19571 -1.9615,3.65563 -0.3714,2.77826 1.1176,4.4207 1.4929,1.61349 4.9368,2.07382 2.865,0.38297 5.3851,-0.39956 2.524,-0.81146 4.7587,-2.10345 z"
         id="path31301" />
      <path
         d="m 1230.7702,279.38018 -0.2873,-0.0519 q -1.1549,-0.50527 -2.2834,-0.82776 -1.0947,-0.34604 -2.6462,-0.62626 -2.4998,-0.45145 -5.0295,0.24881 -2.5246,0.67153 -4.9961,2.03505 l -4.1149,22.7851 -5.4018,-0.97555 5.7962,-32.09453 5.4018,0.97555 -0.8562,4.74091 q 3.6851,-2.00477 6.3194,-2.62681 2.6682,-0.64558 5.2254,-0.18375 1.4079,0.25427 2.0245,0.45463 0.6217,0.17162 1.8496,0.60107 z"
         id="path31303" />
      <path
         d="m 1261.5538,298.3826 -23.2216,-6.1789 q -0.7733,2.90623 -0.4767,5.31159 0.3041,2.37714 1.4599,4.16514 1.1068,1.74476 2.9299,2.955 1.8514,1.21774 4.278,1.86341 3.2166,0.85588 6.7992,0.44957 3.6184,-0.42703 5.3314,-1.30064 l 0.2821,0.0751 -1.5391,5.78425 q -2.9808,0.41539 -5.9769,0.43395 -2.9961,0.0186 -6.0716,-0.79979 -7.844,-2.08716 -11.1195,-7.49075 -3.268,-5.43181 -1.1883,-13.2476 2.0571,-7.73114 7.47,-11.15523 5.4411,-3.41658 12.3258,-1.58468 6.3768,1.69676 8.8281,6.3372 2.4795,4.64795 0.6551,11.5044 z m -4.0823,-5.437 q 1.0829,-4.18346 -0.397,-7.02451 -1.4516,-2.83355 -5.684,-3.95972 -4.2605,-1.13368 -7.4682,0.70183 -3.1794,1.84302 -4.509,5.47742 z"
         id="path31305" />
    </g>
  </g>
</svg>
